<?xml version="1.0" encoding="UTF-8" standalone="no"?>
<!-- Created with Inkscape (http://www.inkscape.org/) -->

<svg
   id="svg3894"
   sodipodi:docname="icon-edited.svg"
   viewBox="0 0 744.09 1052.4"
   version="1.1"
   inkscape:version="1.2.2 (1:1.2.2+202305151914+b0a8486541)"
   xmlns:inkscape="http://www.inkscape.org/namespaces/inkscape"
   xmlns:sodipodi="http://sodipodi.sourceforge.net/DTD/sodipodi-0.dtd"
   xmlns="http://www.w3.org/2000/svg"
   xmlns:svg="http://www.w3.org/2000/svg"
   xmlns:rdf="http://www.w3.org/1999/02/22-rdf-syntax-ns#"
   xmlns:cc="http://creativecommons.org/ns#"
   xmlns:dc="http://purl.org/dc/elements/1.1/">
  <defs
     id="defs21" />
  <sodipodi:namedview
     id="base"
     bordercolor="#666666"
     inkscape:pageshadow="2"
     inkscape:window-y="0"
     pagecolor="#ffffff"
     inkscape:window-height="673"
     inkscape:window-maximized="1"
     inkscape:zoom="0.49497475"
     inkscape:window-x="0"
     showgrid="false"
     borderopacity="1.0"
     inkscape:current-layer="layer1"
     inkscape:cx="355.5737"
     inkscape:cy="407.09148"
     inkscape:window-width="1366"
     inkscape:pageopacity="0.0"
     inkscape:document-units="px"
     inkscape:showpageshadow="2"
     inkscape:pagecheckerboard="0"
     inkscape:deskcolor="#d1d1d1" />
  <g
     id="layer1"
     inkscape:label="Layer 1"
     inkscape:groupmode="layer">
    <path
       id="path3844"
       style="stroke:#000000;stroke-width:.93297px;fill:#d40000"
       d="m143.58 263.66-2.6823 483.8 505.15-70.644-3.9944-378.5zm87 67.961 351.4 24.466c9.9309 0.88855 14.78 4.8707 14.554 15.089 1.3542 67.085-3.0397 141.27-1.6855 208.35 0.90284 11.995-8.8422 15.498-14.898 15.165-117.37 9.774-237.43 20.398-354.79 30.172-10.608-0.6664-18.513-7.3472-17.61-16.677 0.90281-88.41-0.23225-171.48 0.67056-259.89-0.50025-10.443 10.289-15.073 22.362-16.677z"
       inkscape:export-ydpi="72"
       sodipodi:nodetypes="cccccccccccccc"
       inkscape:export-filename="C:\Raster\Web_pics\etch2.png"
       inkscape:connector-curvature="0"
       inkscape:export-xdpi="72" />
    <path
       id="path3846"
       style="stroke:#000000;stroke-width:.93297px;fill:#d40000"
       d="m98.874 752.78c11.107 8.9802 28.925 10.468 34.034-1.305l5.3313-493.14 501.14 35.986c-2.2345-14.594-6.3537-14.109-25.552-14.566l-514.01-39.99z"
       inkscape:export-ydpi="72"
       sodipodi:nodetypes="ccccccc"
       inkscape:export-filename="C:\Raster\Web_pics\etch2.png"
       inkscape:connector-curvature="0"
       inkscape:export-xdpi="72" />
    <path
       id="path3848"
       style="stroke:#000000;stroke-width:.93297px;fill:#d40000"
       d="m583.11 361.57c5.2255-2.045 8.2916 0.29424 9.4106 8.0777 0.88857 68.862-2.4688 140.99-1.5803 209.86 1.0772 6.7988-3.0291 10.299-9.9626 11.914-116.4 8.8855-231.08 19.051-347.48 27.937-14.675 1.737-21.696-6.5359-21.292-14.223 120.84-7.1084 246.92-17.268 367.76-24.376 0.88849-71.972 2.2531-147.21 3.1417-219.19z"
       inkscape:export-ydpi="72"
       sodipodi:nodetypes="cccccccc"
       inkscape:export-filename="C:\Raster\Web_pics\etch2.png"
       inkscape:connector-curvature="0"
       inkscape:export-xdpi="72" />
    <path
       id="path3850"
       style="fill-rule:evenodd;color:#000000;stroke:#000000;stroke-width:.49266px;fill:#ffffff"
       d="m597.11 615.2c-6.2652 0.79526-15.652 12.021-15.652 27.842s9.6516 24.942 16.447 26.268c2.1652 0.42233 6.4616 1.7399 8.4846 1.0382-9.8032-3.3966-16.992-14.719-16.992-27.836 0-13.116 7.4551-25.482 17.257-28.88-2.0237-0.70229-7.3555 1.2905-9.5449 1.5684z"
       inkscape:export-ydpi="72"
       sodipodi:nodetypes="ssscscs"
       inkscape:export-filename="C:\Raster\Web_pics\etch2.png"
       inkscape:connector-curvature="0"
       inkscape:export-xdpi="72" />
    <path
       id="path3852"
       style="fill-rule:evenodd;color:#000000;stroke:#000000;stroke-width:.49266px;fill:#ffffff"
       d="m615.94 613.87c-12.892 0-23.356 12.816-23.356 28.637s10.463 28.653 23.356 28.653c12.892 0 23.339-12.833 23.339-28.653 0-15.821-10.447-28.637-23.339-28.637zm4.4612 7.0198c9.8321 0 17.812 9.7816 17.812 21.847s-7.9799 21.847-17.812 21.847-17.796-9.7816-17.796-21.847 7.9635-21.847 17.796-21.847z"
       inkscape:export-ydpi="72"
       inkscape:export-filename="C:\Raster\Web_pics\etch2.png"
       inkscape:connector-curvature="0"
       inkscape:export-xdpi="72" />
    <path
       id="path3854"
       sodipodi:rx="50.507626"
       sodipodi:ry="54.548237"
       style="fill-rule:evenodd;color:#000000;stroke:#000000;stroke-width:1px;fill:#ffffff"
       sodipodi:type="arc"
       d="m911.16 910.94a50.508 54.548 0 1 1 -101.02 0 50.508 54.548 0 1 1 101.02 0z"
       inkscape:export-ydpi="72"
       inkscape:export-filename="C:\Raster\Web_pics\etch2.png"
       transform="matrix(.31643 0 0 .35953 348.22 315.23)"
       sodipodi:cy="910.9408"
       sodipodi:cx="860.64996"
       inkscape:export-xdpi="72" />
    <path
       id="path3856"
       style="fill-rule:evenodd;color:#000000;stroke:#000000;stroke-width:.62006px;fill:#ffffff"
       d="m171.03 661.53c-7.8854 1.0009-19.699 15.13-19.699 35.042s12.148 31.392 20.7 33.06c2.7251 0.53153 8.1325 2.1899 10.679 1.3067-12.338-4.275-21.386-18.526-21.386-35.034 0-16.507 9.383-32.072 21.72-36.348-2.547-0.8839-9.2576 1.6242-12.013 1.974z"
       inkscape:export-ydpi="72"
       sodipodi:nodetypes="ssscscs"
       inkscape:export-filename="C:\Raster\Web_pics\etch2.png"
       inkscape:connector-curvature="0"
       inkscape:export-xdpi="72" />
    <path
       id="path3858"
       style="fill-rule:evenodd;color:#000000;stroke:#000000;stroke-width:.62006px;fill:#ffffff"
       d="m194.72 659.86c-16.226 0-29.396 16.131-29.396 36.043s13.169 36.063 29.396 36.063c16.226 0 29.375-16.151 29.375-36.063s-13.148-36.043-29.375-36.043zm5.6149 8.8352c12.375 0 22.418 12.311 22.418 27.496s-10.044 27.496-22.418 27.496c-12.375 0-22.398-12.311-22.398-27.496s10.023-27.496 22.398-27.496z"
       inkscape:export-ydpi="72"
       inkscape:export-filename="C:\Raster\Web_pics\etch2.png"
       inkscape:connector-curvature="0"
       inkscape:export-xdpi="72" />
    <path
       id="path3860"
       sodipodi:rx="50.507626"
       sodipodi:ry="54.548237"
       style="fill-rule:evenodd;color:#000000;stroke:#000000;stroke-width:1px;fill:#ffffff"
       sodipodi:type="arc"
       d="m911.16 910.94a50.508 54.548 0 1 1 -101.02 0 50.508 54.548 0 1 1 101.02 0z"
       inkscape:export-ydpi="72"
       inkscape:export-filename="C:\Raster\Web_pics\etch2.png"
       transform="matrix(.39826 0 0 .45251 -142.23 283.99)"
       sodipodi:cy="910.9408"
       sodipodi:cx="860.64996"
       inkscape:export-xdpi="72" />
  </g>
  <metadata
     id="metadata18">
    <rdf:RDF>
      <cc:Work>
        <dc:format>image/svg+xml</dc:format>
        <dc:type
           rdf:resource="http://purl.org/dc/dcmitype/StillImage" />
        <cc:license
           rdf:resource="http://creativecommons.org/licenses/publicdomain/" />
        <dc:publisher>
          <cc:Agent
             rdf:about="http://openclipart.org/">
            <dc:title>Openclipart</dc:title>
          </cc:Agent>
        </dc:publisher>
        <dc:date>2012-03-24T22:55:44</dc:date>
        <dc:description />
        <dc:source>https://openclipart.org/detail/169111/status-quo-by-raker-tooth</dc:source>
        <dc:creator>
          <cc:Agent>
            <dc:title>Raker Tooth</dc:title>
          </cc:Agent>
        </dc:creator>
        <dc:subject>
          <rdf:Bag>
            <rdf:li>candidate Romney</rdf:li>
            <rdf:li>etch a sketch</rdf:li>
            <rdf:li>re-elect president Obama</rdf:li>
          </rdf:Bag>
        </dc:subject>
      </cc:Work>
      <cc:License
         rdf:about="http://creativecommons.org/licenses/publicdomain/">
        <cc:permits
           rdf:resource="http://creativecommons.org/ns#Reproduction" />
        <cc:permits
           rdf:resource="http://creativecommons.org/ns#Distribution" />
        <cc:permits
           rdf:resource="http://creativecommons.org/ns#DerivativeWorks" />
      </cc:License>
    </rdf:RDF>
  </metadata>
</svg>
